<svg id="Layer_1" data-name="Layer 1" xmlns="http://www.w3.org/2000/svg" viewBox="0 0 612 792"><rect x="199.38" y="96.46" width="95.73" height="19.38" style="fill:#3e3e40"/><rect x="329.89" y="96.46" width="95.73" height="19.38" style="fill:#3e3e40"/><rect x="466.43" y="96.46" width="95.73" height="19.38" style="fill:#3e3e40"/><rect x="48.88" y="96.46" width="95.73" height="19.38" style="fill:#3e3e40"/><rect x="48.88" y="263.69" width="95.73" height="19.38" style="fill:#3e3e40"/><rect x="48.88" y="587.65" width="95.73" height="19.38" style="fill:#3e3e40"/><text transform="translate(80.46 109.21)" style="font-size:8px;fill:#fff;font-family:Montserrat-ExtraBold, Montserrat;font-weight:800">Básicos</text><text transform="translate(54.28 70.11)" style="font-size:31.93779945373535px;fill:#3e3e40;font-family:Montserrat-ExtraBold, Montserrat;font-weight:800">Roadmap</text><text transform="translate(232.94 70.11)" style="font-size:31.93779945373535px;fill:#3e3e40;font-family:Montserrat-Light, Montserrat;font-weight:300">&amp; Develop Skills</text><rect x="50.6" y="161.22" width="95.73" height="19.38" style="fill:none;stroke:#3e3e40;stroke-miterlimit:10"/><rect x="100.76" y="186.48" width="95.73" height="19.38" style="fill:none;stroke:#3e3e40;stroke-miterlimit:10"/><rect x="448.99" y="151.26" width="95.73" height="19.38" style="fill:none;stroke:#3e3e40;stroke-miterlimit:10"/><rect x="151.39" y="161.54" width="95.73" height="19.38" style="fill:none;stroke:#3e3e40;stroke-miterlimit:10"/><text transform="translate(77.03 276.44)" style="font-size:8px;fill:#fff;font-family:Montserrat-ExtraBold, Montserrat;font-weight:800">Frontend</text><text transform="translate(61.06 600.4)" style="font-size:8px;fill:#fff;font-family:Montserrat-ExtraBold, Montserrat;font-weight:800">Backend / BBDD</text><text transform="translate(235.23 109.21)" style="font-size:8px;fill:#fff;font-family:Montserrat-ExtraBold, Montserrat;font-weight:800">HTML</text><text transform="translate(369.63 109.21)" style="font-size:8px;fill:#fff;font-family:Montserrat-ExtraBold, Montserrat;font-weight:800">CSS</text><text transform="translate(194.04 302.49)" style="font-size:8px;fill:#3e3e40;font-family:Montserrat-ExtraBold, Montserrat;font-weight:800;text-decoration:underline">Preprocesadores</text><text transform="translate(320.36 222.49)" style="font-size:8px;fill:#3e3e40;font-family:Montserrat-ExtraBold, Montserrat;font-weight:800">Responsive web</text><text transform="translate(203.41 357.49)" style="font-size:8px;fill:#3e3e40;font-family:Montserrat-ExtraBold, Montserrat;font-weight:800;text-decoration:underline">Frameworks</text><text transform="translate(488.2 421.01)" style="font-size:8px;fill:#3e3e40;font-family:Montserrat-ExtraBold, Montserrat;font-weight:800;text-decoration:underline">SEO</text><text transform="translate(306 651.48)" style="font-size:8px;fill:#3e3e40;font-family:Montserrat-ExtraBold, Montserrat;font-weight:800;text-decoration:underline">Headless CMS</text><text transform="translate(138.84 651.37)" style="font-size:8px;fill:#3e3e40;font-family:Montserrat-ExtraBold, Montserrat;font-weight:800;text-decoration:underline">CMS</text><text transform="translate(417.2 562.42)" style="font-size:8px;fill:#3e3e40;font-family:Montserrat-ExtraBold, Montserrat;font-weight:800;text-decoration:underline">Testing</text><text transform="translate(326.14 156.39)" style="font-size:8px;fill:#3e3e40;font-family:Montserrat-ExtraBold, Montserrat;font-weight:800;text-decoration:underline">Metodologías</text><text transform="translate(121.12 154.21)" style="font-size:8px;fill:#3e3e40;font-family:Montserrat-ExtraBold, Montserrat;font-weight:800;text-decoration:underline">Repositorios</text><text transform="translate(84.02 173.88)" style="font-size:8px;fill:#3e3e40;font-family:Montserrat-ExtraBold, Montserrat;font-weight:800">Github</text><text transform="translate(133.21 198.94)" style="font-size:8px;fill:#3e3e40;font-family:Montserrat-ExtraBold, Montserrat;font-weight:800">GitFlow</text><text transform="translate(178.08 173.56)" style="font-size:8px;fill:#3e3e40;font-family:Montserrat-ExtraBold, Montserrat;font-weight:800">Bitbucket</text><text transform="translate(488.99 163.28)" style="font-size:8px;fill:#3e3e40;font-family:Montserrat-ExtraBold, Montserrat;font-weight:800">ES6</text><rect x="448.99" y="212.32" width="95.73" height="19.38" style="fill:none;stroke:#3e3e40;stroke-miterlimit:10"/><text transform="translate(486.98 224.34)" style="font-size:8px;fill:#3e3e40;font-family:Montserrat-ExtraBold, Montserrat;font-weight:800">Gulp</text><rect x="448.99" y="236.13" width="95.73" height="19.38" style="fill:none;stroke:#3e3e40;stroke-miterlimit:10"/><text transform="translate(470.93 248.15)" style="font-size:8px;fill:#3e3e40;font-family:Montserrat-ExtraBold, Montserrat;font-weight:800">NPM Scripts</text><rect x="307.26" y="162.71" width="95.73" height="19.38" style="fill:none;stroke:#3e3e40;stroke-miterlimit:10"/><text transform="translate(345.54 174.73)" style="font-size:8px;fill:#3e3e40;font-family:Montserrat-ExtraBold, Montserrat;font-weight:800">BEM</text><rect x="182.34" y="310.21" width="95.73" height="19.38" style="fill:none;stroke:#3e3e40;stroke-miterlimit:10"/><rect x="182.34" y="365.74" width="95.73" height="19.38" style="fill:none;stroke:#3e3e40;stroke-miterlimit:10"/><text transform="translate(219.3 322.23)" style="font-size:8px;fill:#3e3e40;font-family:Montserrat-ExtraBold, Montserrat;font-weight:800">SASS</text><rect x="448.99" y="310.21" width="95.73" height="19.38" style="fill:none;stroke:#3e3e40;stroke-miterlimit:10"/><text transform="translate(480.02 322.23)" style="font-size:8px;fill:#3e3e40;font-family:Montserrat-ExtraBold, Montserrat;font-weight:800">React.js</text><rect x="448.99" y="335.63" width="95.73" height="19.38" style="fill:none;stroke:#3e3e40;stroke-miterlimit:10"/><text transform="translate(483.91 347.65)" style="font-size:8px;fill:#3e3e40;font-family:Montserrat-ExtraBold, Montserrat;font-weight:800">Vue.js</text><rect x="326.46" y="335.63" width="95.73" height="19.38" style="fill:none;stroke:#3e3e40;stroke-miterlimit:10"/><text transform="translate(359.67 347.65)" style="font-size:8px;fill:#3e3e40;font-family:Montserrat-ExtraBold, Montserrat;font-weight:800">Next.js</text><rect x="326.46" y="360.48" width="95.73" height="19.38" style="fill:none;stroke:#3e3e40;stroke-miterlimit:10"/><text transform="translate(338.71 372.5)" style="font-size:8px;fill:#3e3e40;font-family:Montserrat-ExtraBold, Montserrat;font-weight:800">Create react app</text><rect x="326.46" y="384.79" width="95.73" height="19.38" style="fill:none;stroke:#3e3e40;stroke-miterlimit:10"/><text transform="translate(354.89 396.81)" style="font-size:8px;fill:#3e3e40;font-family:Montserrat-ExtraBold, Montserrat;font-weight:800">Gatsby.js</text><rect x="448.99" y="426.61" width="95.73" height="19.38" style="fill:none;stroke:#3e3e40;stroke-miterlimit:10"/><text transform="translate(482.2 438.63)" style="font-size:8px;fill:#3e3e40;font-family:Montserrat-ExtraBold, Montserrat;font-weight:800">Helmet</text><rect x="448.99" y="451.35" width="95.73" height="19.38" style="fill:none;stroke:#3e3e40;stroke-miterlimit:10"/><text transform="translate(455.35 463.36)" style="font-size:8px;fill:#3e3e40;font-family:Montserrat-ExtraBold, Montserrat;font-weight:800">SSR y pre rendering</text><text transform="translate(208.97 378.01)" style="font-size:8px;fill:#3e3e40;font-family:Montserrat-ExtraBold, Montserrat;font-weight:800">Bootstrap</text><rect x="182.34" y="389.32" width="95.73" height="19.38" style="fill:none;stroke:#3e3e40;stroke-miterlimit:10"/><text transform="translate(216.42 401.6)" style="font-size:8px;fill:#3e3e40;font-family:Montserrat-ExtraBold, Montserrat;font-weight:800">Bulma</text><rect x="182.34" y="435.51" width="95.73" height="19.38" style="fill:none;stroke:#3e3e40;stroke-miterlimit:10"/><text transform="translate(190.41 447.52)" style="font-size:8px;fill:#3e3e40;font-family:Montserrat-ExtraBold, Montserrat;font-weight:800">Styled Component</text><rect x="182.34" y="503.42" width="95.73" height="19.38" style="fill:none;stroke:#3e3e40;stroke-miterlimit:10"/><text transform="translate(194.6 515.44)" style="font-size:8px;fill:#3e3e40;font-family:Montserrat-ExtraBold, Montserrat;font-weight:800">API Rest / SOAP</text><rect x="307.26" y="186.52" width="95.73" height="19.38" style="fill:none;stroke:#3e3e40;stroke-miterlimit:10"/><rect x="307.26" y="210.48" width="95.73" height="19.38" style="fill:none;stroke:#3e3e40;stroke-miterlimit:10"/><text transform="translate(338.33 246.57)" style="font-size:8px;fill:#3e3e40;font-family:Montserrat-ExtraBold, Montserrat;font-weight:800">Flexbox</text><rect x="307.26" y="234.56" width="95.73" height="19.38" style="fill:none;stroke:#3e3e40;stroke-miterlimit:10"/><text transform="translate(337.45 198.54)" style="font-size:8px;fill:#3e3e40;font-family:Montserrat-ExtraBold, Montserrat;font-weight:800">SMACSS</text><text transform="translate(467.89 207.94)" style="font-size:8px;fill:#3e3e40;font-family:Montserrat-ExtraBold, Montserrat;font-weight:800;text-decoration:underline">Task Runners</text><text transform="translate(480.51 304.04)" style="font-size:8px;fill:#3e3e40;font-family:Montserrat-ExtraBold, Montserrat;font-weight:800;text-decoration:underline">Librería</text><text transform="translate(347.53 329.59)" style="font-size:8px;fill:#3e3e40;font-family:Montserrat-ExtraBold, Montserrat;font-weight:800;text-decoration:underline">Frameworks</text><text transform="translate(359.8 421.01)" style="font-size:8px;fill:#3e3e40;font-family:Montserrat-ExtraBold, Montserrat;font-weight:800;text-decoration:underline">Router</text><text transform="translate(498 109.21)" style="font-size:8px;fill:#fff;font-family:Montserrat-ExtraBold, Montserrat;font-weight:800">JavaScript</text><line x1="412.13" y1="115.84" x2="412.13" y2="273.38" style="fill:none;stroke:#3e3e40;stroke-miterlimit:10"/><line x1="553.47" y1="115.84" x2="553.47" y2="692.55" style="fill:none;stroke:#3e3e40;stroke-miterlimit:10"/><line x1="143.61" y1="596.25" x2="553.47" y2="596.25" style="fill:none;stroke:#3e3e40;stroke-miterlimit:10"/><rect x="48.88" y="683.95" width="95.73" height="19.38" style="fill:#3e3e40"/><text transform="translate(69.25 696.7)" style="font-size:8px;fill:#fff;font-family:Montserrat-ExtraBold, Montserrat;font-weight:800">Deploiment</text><line x1="143.61" y1="692.55" x2="553.47" y2="692.55" style="fill:none;stroke:#3e3e40;stroke-miterlimit:10"/><line x1="143.61" y1="273.38" x2="553.47" y2="273.38" style="fill:none;stroke:#3e3e40;stroke-miterlimit:10"/><line x1="259.21" y1="115.84" x2="259.21" y2="245.82" style="fill:none;stroke:#3e3e40;stroke-miterlimit:10"/><line x1="306.82" y1="273.38" x2="306.82" y2="580.94" style="fill:none;stroke:#3e3e40;stroke-miterlimit:10"/><polygon points="270.47 316.52 271.64 318.68 274.26 319.03 272.36 320.72 272.81 323.1 270.47 321.97 268.13 323.1 268.57 320.72 266.68 319.03 269.3 318.68 270.47 316.52" style="fill:#3e3e40"/><polygon points="395.36 169.75 396.53 171.91 399.15 172.26 397.25 173.94 397.7 176.32 395.36 175.2 393.02 176.32 393.46 173.94 391.57 172.26 394.19 171.91 395.36 169.75" style="fill:#3e3e40"/><polygon points="536.52 242.8 537.69 244.97 540.31 245.32 538.41 247 538.86 249.38 536.52 248.26 534.18 249.38 534.63 247 532.73 245.32 535.35 244.97 536.52 242.8" style="fill:#3e3e40"/><polygon points="270.47 371.73 271.64 373.89 274.26 374.24 272.36 375.92 272.81 378.3 270.47 377.18 268.13 378.3 268.57 375.92 266.68 374.24 269.3 373.89 270.47 371.73" style="fill:#3e3e40"/><polygon points="536.52 316.52 537.69 318.68 540.31 319.03 538.41 320.72 538.86 323.1 536.52 321.97 534.18 323.1 534.63 320.72 532.73 319.03 535.35 318.68 536.52 316.52" style="fill:#3e3e40"/><polygon points="412.13 340.91 413.3 343.07 415.92 343.42 414.02 345.11 414.47 347.49 412.13 346.36 409.79 347.49 410.23 345.11 408.34 343.42 410.96 343.07 412.13 340.91" style="fill:#3e3e40"/><rect x="326.46" y="426.61" width="95.73" height="19.38" style="fill:none;stroke:#3e3e40;stroke-miterlimit:10"/><text transform="translate(348.58 438.63)" style="font-size:8px;fill:#3e3e40;font-family:Montserrat-ExtraBold, Montserrat;font-weight:800">Next Router</text><rect x="326.46" y="451.08" width="95.73" height="19.38" style="fill:none;stroke:#3e3e40;stroke-miterlimit:10"/><text transform="translate(345.4 463.1)" style="font-size:8px;fill:#3e3e40;font-family:Montserrat-ExtraBold, Montserrat;font-weight:800">Reach Router</text><rect x="326.46" y="475.33" width="95.73" height="19.38" style="fill:none;stroke:#3e3e40;stroke-miterlimit:10"/><text transform="translate(360.75 487.35)" style="font-size:8px;fill:#3e3e40;font-family:Montserrat-ExtraBold, Montserrat;font-weight:800">Redux</text><polygon points="412.13 433.01 413.3 435.18 415.92 435.52 414.02 437.21 414.47 439.59 412.13 438.47 409.79 439.59 410.23 437.21 408.34 435.52 410.96 435.18 412.13 433.01" style="fill:#3e3e40"/><rect x="226.39" y="617.64" width="95.73" height="19.38" style="fill:none;stroke:#3e3e40;stroke-miterlimit:10"/><text transform="translate(248.89 629.65)" style="font-size:8px;fill:#3e3e40;font-family:Montserrat-ExtraBold, Montserrat;font-weight:800">Apollo Server</text><rect x="448.99" y="617.64" width="95.73" height="19.38" style="fill:none;stroke:#3e3e40;stroke-miterlimit:10"/><text transform="translate(479.63 629.65)" style="font-size:8px;fill:#3e3e40;font-family:Montserrat-ExtraBold, Montserrat;font-weight:800">Node JS</text><rect x="448.99" y="641.1" width="95.73" height="19.38" style="fill:none;stroke:#3e3e40;stroke-miterlimit:10"/><text transform="translate(479.63 653.12)" style="font-size:8px;fill:#3e3e40;font-family:Montserrat-ExtraBold, Montserrat;font-weight:800">Express JS</text><rect x="337.69" y="617.64" width="95.73" height="19.38" style="fill:none;stroke:#3e3e40;stroke-miterlimit:10"/><text transform="translate(359.23 629.65)" style="font-size:8px;fill:#3e3e40;font-family:Montserrat-ExtraBold, Montserrat;font-weight:800">Graph Ql</text><rect x="289.75" y="657.7" width="95.73" height="19.38" style="fill:none;stroke:#3e3e40;stroke-miterlimit:10"/><text transform="translate(312.54 669.72)" style="font-size:8px;fill:#3e3e40;font-family:Montserrat-ExtraBold, Montserrat;font-weight:800">Wordpress</text><rect x="103.43" y="657.7" width="95.73" height="19.38" style="fill:none;stroke:#3e3e40;stroke-miterlimit:10"/><text transform="translate(139.12 669.72)" style="font-size:8px;fill:#3e3e40;font-family:Montserrat-ExtraBold, Montserrat;font-weight:800">Strapi</text><polygon points="422.82 624.04 423.99 626.2 426.61 626.55 424.71 628.24 425.16 630.62 422.82 629.49 420.48 630.62 420.93 628.24 419.03 626.55 421.65 626.2 422.82 624.04" style="fill:#3e3e40"/><rect x="226.39" y="708.05" width="95.73" height="19.38" style="fill:none;stroke:#3e3e40;stroke-miterlimit:10"/><text transform="translate(262.64 720.07)" style="font-size:8px;fill:#3e3e40;font-family:Montserrat-ExtraBold, Montserrat;font-weight:800">Netlify</text><rect x="448.99" y="708.05" width="95.73" height="19.38" style="fill:none;stroke:#3e3e40;stroke-miterlimit:10"/><text transform="translate(479.63 720.07)" style="font-size:8px;fill:#3e3e40;font-family:Montserrat-ExtraBold, Montserrat;font-weight:800">Heroku</text><rect x="337.69" y="708.05" width="95.73" height="19.38" style="fill:none;stroke:#3e3e40;stroke-miterlimit:10"/><text transform="translate(373.62 720.07)" style="font-size:8px;fill:#3e3e40;font-family:Montserrat-ExtraBold, Montserrat;font-weight:800">Vercel</text><rect x="226.39" y="732.68" width="95.73" height="19.38" style="fill:none;stroke:#3e3e40;stroke-miterlimit:10"/><text transform="translate(262.64 744.7)" style="font-size:8px;fill:#3e3e40;font-family:Montserrat-ExtraBold, Montserrat;font-weight:800">AWP</text><rect x="448.99" y="732.68" width="95.73" height="19.38" style="fill:none;stroke:#3e3e40;stroke-miterlimit:10"/><text transform="translate(471.63 744.7)" style="font-size:8px;fill:#3e3e40;font-family:Montserrat-ExtraBold, Montserrat;font-weight:800">Hosting Linux</text><rect x="338.99" y="732.68" width="95.73" height="19.38" style="fill:none;stroke:#3e3e40;stroke-miterlimit:10"/><text transform="translate(378.32 744.7)" style="font-size:8px;fill:#3e3e40;font-family:Montserrat-ExtraBold, Montserrat;font-weight:800">VPS</text><polygon points="422.82 714.45 423.99 716.62 426.61 716.97 424.71 718.65 425.16 721.03 422.82 719.91 420.48 721.03 420.93 718.65 419.03 716.97 421.65 716.62 422.82 714.45" style="fill:#3e3e40"/><polygon points="190.58 664.1 191.75 666.27 194.37 666.62 192.47 668.3 192.92 670.68 190.58 669.56 188.24 670.68 188.68 668.3 186.79 666.62 189.41 666.27 190.58 664.1" style="fill:#3e3e40"/><rect x="385.27" y="502.66" width="95.73" height="19.38" style="fill:none;stroke:#3e3e40;stroke-miterlimit:10"/><text transform="translate(409.26 514.68)" style="font-size:8px;fill:#3e3e40;font-family:Montserrat-ExtraBold, Montserrat;font-weight:800">Prop Types</text><rect x="385.27" y="567.55" width="95.73" height="19.38" style="fill:none;stroke:#3e3e40;stroke-miterlimit:10"/><text transform="translate(424.45 579.56)" style="font-size:8px;fill:#3e3e40;font-family:Montserrat-ExtraBold, Montserrat;font-weight:800">Jest</text><polygon points="471.94 508.79 473.11 510.96 475.73 511.31 473.83 512.99 474.28 515.37 471.94 514.25 469.6 515.37 470.05 512.99 468.15 511.31 470.77 510.96 471.94 508.79" style="fill:#3e3e40"/><rect x="385.27" y="528.27" width="95.73" height="19.38" style="fill:none;stroke:#3e3e40;stroke-miterlimit:10"/><text transform="translate(405.68 540.29)" style="font-size:8px;fill:#3e3e40;font-family:Montserrat-ExtraBold, Montserrat;font-weight:800">Apollo Client</text></svg>